<svg width="48" height="48" viewBox="0 0 48 48" fill="none" xmlns="http://www.w3.org/2000/svg">
<circle cx="23" cy="24" r="23" fill="white"/>
<path d="M13.15 36.25C12.5701 36.8299 11.6299 36.8299 11.05 36.25V36.25C10.4701 35.6701 10.4701 34.7299 11.05 34.15L20.1358 25.0642C20.9168 24.2832 20.9168 23.0168 20.1358 22.2358L11.05 13.15C10.4701 12.5701 10.4701 11.6299 11.05 11.05V11.05C11.6299 10.4701 12.5701 10.4701 13.15 11.05L22.2358 20.1358C23.0168 20.9168 24.2832 20.9168 25.0642 20.1358L34.15 11.05C34.7299 10.4701 35.6701 10.4701 36.25 11.05V11.05C36.8299 11.6299 36.8299 12.5701 36.25 13.15L27.1642 22.2358C26.3832 23.0168 26.3832 24.2832 27.1642 25.0642L36.25 34.15C36.8299 34.7299 36.8299 35.6701 36.25 36.25V36.25C35.6701 36.8299 34.7299 36.8299 34.15 36.25L25.0642 27.1642C24.2832 26.3832 23.0168 26.3832 22.2358 27.1642L13.15 36.25Z" fill="black"/>
</svg>
