<svg width="50" height="50" viewBox="0 0 50 50" fill="none" xmlns="http://www.w3.org/2000/svg">
<path d="M48 24C48 37.2548 37.4787 48 24.5 48C11.5213 48 1 37.2548 1 24C1 10.7452 11.5213 0 24.5 0C37.4787 0 48 10.7452 48 24Z" fill="white"/>
<path d="M48 24C48 37.2548 37.4787 48 24.5 48C11.5213 48 1 37.2548 1 24C1 10.7452 11.5213 0 24.5 0C37.4787 0 48 10.7452 48 24Z" stroke="white"/>
<path fill-rule="evenodd" clip-rule="evenodd" d="M25 1C38.2527 1 49 11.7473 49 25C49 38.2527 38.2527 49 25 49C11.7473 49 1 38.2527 1 25C1 11.7473 11.7473 1 25 1ZM36.4077 28.1914H36.414V38.9929C36.414 39.4178 36.0674 39.7643 35.6426 39.7643H28.665C28.2402 39.7643 27.8936 39.4178 27.8936 38.9929V33.1199C27.8936 32.6951 27.5472 32.3485 27.1224 32.3485H22.8786C22.4537 32.3485 22.1071 32.6951 22.1071 33.1199V38.9929C22.1071 39.4178 21.7608 39.7643 21.3359 39.7643H14.3584C13.9335 39.7643 13.587 39.4178 13.587 38.9929V28.1914L19.2763 22.405L24.4163 17.1781C24.5669 17.025 24.7517 16.9473 24.9666 16.9473C25.181 16.9473 25.3659 17.025 25.5165 17.1781L30.6564 22.405L36.4077 28.1914ZM26.1034 10.6969L34.0688 18.7974L40.5533 25.3921C40.9984 25.8449 41.1214 26.4846 40.8759 27.0702C40.6302 27.6559 40.0881 28.0166 39.4529 28.0166H39.4144C38.9848 28.0166 38.6152 27.8619 38.3141 27.5553L31.8608 20.9924L26.0541 15.0869C25.7529 14.7807 25.3834 14.6256 24.9539 14.6256C24.5243 14.6256 24.1549 14.7807 23.8537 15.0869L18.0464 20.9924C15.8957 23.18 13.7442 25.3679 11.5934 27.5553C11.5723 27.5771 11.5513 27.5958 11.5307 27.6117C11.2622 27.8484 10.9097 27.9921 10.5237 27.9921C9.68233 27.9921 8.99975 27.3097 8.99975 26.468C8.99975 26.0033 9.208 25.5872 9.53644 25.3075L15.9376 18.7974L23.903 10.6969C24.2042 10.3906 24.5737 10.2357 25.0034 10.2357C25.4328 10.2357 25.8024 10.3908 26.1034 10.6969Z" fill="url(#paint0_linear_8_6)"/>
<defs>
<linearGradient id="paint0_linear_8_6" x1="14.8095" y1="1" x2="57.7792" y2="6.38561" gradientUnits="userSpaceOnUse">
<stop stop-color="#178FEB"/>
<stop offset="1" stop-color="#1E1E1E"/>
</linearGradient>
</defs>
</svg>
