<svg width="48" height="48" viewBox="0 0 48 48" fill="none" xmlns="http://www.w3.org/2000/svg">
<path d="M23.993 40C23.3311 40 22.7668 39.7643 22.3001 39.2929C21.8334 38.8215 21.6001 38.2549 21.6001 37.5929C21.6001 36.931 21.8358 36.3667 22.3072 35.9C22.7786 35.4333 23.3452 35.2 24.0072 35.2C24.6691 35.2 25.2334 35.4357 25.7001 35.9071C26.1668 36.3785 26.4001 36.9451 26.4001 37.6071C26.4001 38.269 26.1644 38.8333 25.693 39.3C25.2216 39.7667 24.655 40 23.993 40ZM23.993 26.4C23.3311 26.4 22.7668 26.1643 22.3001 25.6929C21.8334 25.2215 21.6001 24.6549 21.6001 23.9929C21.6001 23.331 21.8358 22.7667 22.3072 22.3C22.7786 21.8333 23.3452 21.6 24.0072 21.6C24.6691 21.6 25.2334 21.8357 25.7001 22.3071C26.1668 22.7785 26.4001 23.3451 26.4001 24.0071C26.4001 24.669 26.1644 25.2333 25.693 25.7C25.2216 26.1667 24.655 26.4 23.993 26.4ZM23.993 12.8C23.3311 12.8 22.7668 12.5643 22.3001 12.0929C21.8334 11.6215 21.6001 11.0549 21.6001 10.3929C21.6001 9.73097 21.8358 9.16667 22.3072 8.7C22.7786 8.23333 23.3452 8 24.0072 8C24.6691 8 25.2334 8.2357 25.7001 8.7071C26.1668 9.17847 26.4001 9.74513 26.4001 10.4071C26.4001 11.069 26.1644 11.6333 25.693 12.1C25.2216 12.5667 24.655 12.8 23.993 12.8Z" fill="black"/>
</svg>
