<svg width="35" height="32" viewBox="0 0 35 32" fill="none" xmlns="http://www.w3.org/2000/svg">
<path d="M1.40614 31.3751C0.744851 31.669 0 31.1849 0 30.4612V1.53876C0 0.815103 0.744851 0.331045 1.40614 0.62495L33.9439 15.0862C34.7357 15.4381 34.7357 16.5619 33.9439 16.9138L1.40614 31.3751ZM2.84211 27.35L26.5464 16.9092C27.3402 16.5595 27.3429 15.4343 26.5509 15.0808L2.84211 4.5V12.1345C2.84211 12.5863 3.14497 12.9819 3.58105 13.0998L10.6771 15.0188C11.6665 15.2864 11.6608 16.6921 10.6692 16.9516L3.58892 18.8046C3.14897 18.9197 2.84211 19.3172 2.84211 19.772V27.35Z" fill="white"/>
</svg>
